Coordinates
version=1
nRows=20
nColumns=34
inDegrees=yes

Units are S.I. units (second, meters, Newtons, ...)
If the header above contains a line with 'inDegrees', this indicates whether rotational values are in degrees (yes) or radians (no).

endheader
time	pelvis_tilt	pelvis_list	pelvis_rotation	pelvis_tx	pelvis_ty	pelvis_tz	hip_flexion_r	hip_adduction_r	hip_rotation_r	knee_angle_r	ankle_angle_r	subtalar_angle_r	mtp_angle_r	hip_flexion_l	hip_adduction_l	hip_rotation_l	knee_angle_l	ankle_angle_l	subtalar_angle_l	mtp_angle_l	lumbar_extension	lumbar_bending	lumbar_rotation	arm_flex_r	arm_add_r	arm_rot_r	elbow_flex_r	pro_sup_r	arm_flex_l	arm_add_l	arm_rot_l	elbow_flex_l	pro_sup_l
      9.90000000	      1.33157182	     -0.02109237	    -64.38710339	      3.72179776	      0.97613823	      9.66632151	    -18.33145211	     -5.62536225	    -17.79600956	     35.83058293	     36.86444170	     -6.79796148	      0.00000000	    -30.00000025	     -0.94119988	     20.61257236	      9.26898134	     24.94385813	     13.22713854	      0.00000000	     17.95648546	     -8.61860476	     -4.72024934	     -2.72426485	     -9.76585834	     24.92865548	     82.74397301	    119.32296246	     10.11414482	    -11.48450812	     20.99508261	    104.47261968	    119.74817918
      9.91666670	      2.73866864	      1.13353443	    -63.08734744	      3.72224520	      0.97249144	      9.66104088	    -15.62479730	     -7.60793571	    -18.44365198	     40.64977182	     36.00261808	    -10.27405130	      0.00000000	    -30.00000025	     -0.06204721	     20.81549030	      8.18908128	     30.63538940	     14.41940612	      0.00000000	     17.65502703	    -11.29099398	     -5.77743079	     -1.68523228	     -8.57681109	     24.07901669	     81.13904718	    119.15977280	     11.38863189	    -11.96538691	     21.41113622	    104.28961955	    119.74817918
      9.93333330	      3.85681635	      1.13826593	    -62.39292528	      3.72463234	      0.97117382	      9.65644103	    -14.95809102	     -9.38760795	    -19.82749964	     43.50693861	     35.27238418	    -11.13093353	      0.00000000	    -30.00000025	      0.97803260	     19.55471669	      9.45652220	     35.06259155	     14.24390066	      0.00000000	     16.61938660	    -12.33732531	     -6.81855680	     -0.13788436	     -7.89531203	     23.87407246	     79.91492645	    119.04345965	     12.33786262	    -12.35516676	     21.97038615	    103.95116487	    119.74817918
      9.95000000	      5.42067304	      0.73260494	    -61.62467449	      3.72731552	      0.97125701	      9.65148239	    -15.61750448	    -11.19034235	    -21.14727875	     45.17519702	     35.23489749	    -10.80422993	      0.00000000	    -30.00000025	      2.34164189	     17.86035994	     11.68120870	     39.21525431	     14.92772963	      0.00000000	     14.81650739	    -13.40243430	     -7.71861816	      1.47017231	     -7.16579090	     24.04039253	     78.79026606	    118.93002125	     13.08138399	    -12.23613022	     21.77002251	    102.88227421	    119.74817918
      9.96666670	      5.84454735	      0.61424315	    -62.02603858	      3.72876806	      0.96899448	      9.64731341	    -14.27879695	    -12.26253243	    -19.97937117	     48.05745618	     34.38359695	    -11.77883310	      0.00000000	    -30.00000025	      3.09184261	     13.98984589	     12.42113127	     44.37091572	     16.23335764	      0.00000000	     14.37498091	    -13.15040570	     -7.56978590	      2.75711733	     -6.03455372	     23.14966953	     76.93617475	    118.74431603	     13.57916923	    -11.67242641	     22.34586950	    101.21484995	    119.74817918
      9.98333330	      4.79876733	     -0.04166518	    -62.79668082	      3.72937415	      0.96709611	      9.64768398	    -12.94739403	    -11.67650054	    -18.80351116	     50.09338522	     31.11756247	    -12.94735692	      0.00000000	    -30.00000025	      2.37463418	     10.11223580	     13.21979969	     48.44596070	     16.88722704	      0.00000000	     14.92123341	    -11.30160188	     -7.65554777	      3.73629474	     -5.29556185	     23.80111506	     75.14292839	    118.76056983	     12.80871078	    -11.23235067	     22.31528200	    100.18578877	    119.74817918
     10.00000000	      2.96775316	     -0.72664893	    -63.12371598	      3.73202454	      0.96697079	      9.65062941	    -12.42948596	    -10.37755426	    -18.66182871	     50.93567399	     26.61501434	    -15.03187538	      0.00000000	    -30.00000025	      0.84565481	      8.62810080	     13.02492002	     46.56309126	     17.65384096	      0.00000000	     16.10959086	     -8.87323952	     -7.51349840	      2.82237697	     -4.88332266	     22.51098782	     74.99550403	    118.49871243	     11.61436445	    -10.23651690	     22.95915478	     98.68398287	    119.74817918
     10.01666670	     -0.19004092	     -0.80999607	    -65.18898815	      3.73337841	      0.96592441	      9.65755937	    -11.04339784	     -7.65618253	    -16.13936604	     49.89178536	     21.75379217	    -16.64475715	      0.00000000	    -30.00000025	     -0.99383530	      4.54155843	     11.83565953	     49.00927767	     17.89146635	      0.00000000	     19.18463305	     -4.94011694	     -7.04485483	      2.49638734	     -5.28611204	     23.32257430	     74.49788572	    118.56391919	      9.37050994	     -8.80352581	     22.53337015	     97.67067178	    119.74817918
     10.03333330	     -3.66423169	      0.33639627	    -68.04132106	      3.73407301	      0.96372533	      9.66574184	     -8.16930531	     -4.73300699	    -11.84962482	     49.71876035	     20.65971724	    -16.74774900	      0.00000000	    -30.00000025	     -2.08393709	      1.46641980	      8.68335260	     50.00000000	     16.75708716	      0.00000000	     23.79019781	     -0.52049500	     -5.62913986	      0.84608530	     -5.78688741	     23.19826076	     75.73638434	    118.79376313	      7.09821847	     -7.49662024	     22.75854166	     96.89417294	    119.74817918
     10.05000000	     -4.88086234	      1.88818683	    -67.68059997	      3.73840300	      0.96190906	      9.67212209	     -7.25222016	     -4.39557519	    -12.01131936	     48.56058319	     18.60139593	    -12.95245312	      0.00000000	    -30.00000025	     -2.77321703	     -1.17218481	      5.52247598	     50.00000000	     18.87705446	      0.00000000	     27.58196927	     -0.18129080	     -6.65500788	     -0.73169418	     -5.60815139	     23.57565781	     77.39084740	    119.23146468	      4.29434839	     -7.38688566	     22.13107731	     98.16217160	    119.74817918
     10.06666670	     -6.20396004	      3.12132927	    -65.08189745	      3.74607666	      0.96006311	      9.67810242	     -8.04817618	     -3.57175507	    -15.01531275	     44.97679431	     15.01850592	    -10.37951217	      0.00000000	    -30.00000025	     -4.61687074	     -4.85999961	      2.28288117	     50.00000000	     25.14425981	      0.00000000	     31.09838126	     -0.98820162	     -9.34998636	     -2.67911811	     -5.20817924	     22.90833641	     79.33466479	    119.72190714	      1.57251574	     -7.52450651	     21.34421240	     99.88562421	    119.74817918
     10.08333330	     -6.83329674	      4.18066368	    -64.09588889	      3.75144703	      0.95769281	      9.68135985	     -8.27792558	     -3.90252366	    -16.88951295	     42.49678777	     10.71924712	     -8.41955948	      0.00000000	    -30.00000025	     -4.90401851	    -12.93775158	      0.00000000	     50.00000000	     35.00000000	      0.00000000	     33.06667036	     -1.35307190	    -10.16921411	     -3.28637531	     -5.02334379	     22.76265239	     81.51826216	    119.74817918	     -0.59342381	     -7.57580479	     20.61359730	    101.54949254	    119.74817918
     10.10000000	     -7.47969291	      4.22447858	    -64.28194700	      3.75479099	      0.95638619	      9.68332288	     -8.79928238	     -4.17476730	    -17.82694260	     40.73245658	      6.36929416	     -5.33003843	      0.00000000	    -30.00000025	     -5.12594608	    -14.09285290	      0.00000000	     50.00000000	     35.00000000	      0.00000000	     33.60815324	     -0.29151363	     -9.96906753	     -3.67377417	     -5.23205316	     22.80299363	     84.79999040	    119.74817918	     -1.96097888	     -7.87092295	     20.36188739	    103.36006763	    119.74817918
     10.11666670	     -8.05765294	      4.28894019	    -64.87177704	      3.75766046	      0.95532763	      9.68461031	     -9.54547126	     -4.39222659	    -18.20003421	     38.16127067	      2.14438943	     -1.30836166	      0.00000000	    -30.00000025	     -5.10698694	    -14.68696257	      0.00000000	     50.00000000	     35.00000000	      0.00000000	     34.26189743	      1.02222444	     -9.35671834	     -3.90096224	     -5.75624184	     22.44053349	     88.05574237	    119.74817918	     -3.58649305	     -8.11696132	     19.96874244	    105.08535767	    119.74817918
     10.13333330	     -8.00277568	      4.58449733	    -65.59499009	      3.75797290	      0.95396301	      9.68640397	    -11.29689956	     -4.23789243	    -16.39452412	     33.39066736	     -1.21264864	      2.93554136	      0.00000000	    -30.00000025	     -4.58749228	    -14.58776782	      0.00000000	     50.00000000	     35.00000000	      0.00000000	     34.67137774	      1.44579596	     -8.50711797	     -3.73747312	     -5.77966003	     22.42086057	     90.72797215	    119.74817918	     -5.05320561	     -9.03300872	     19.75973681	    106.35756594	    119.74817918
     10.15000000	     -8.45320301	      4.66264501	    -66.09077977	      3.75665551	      0.95310252	      9.68926744	    -13.88783471	     -3.02538299	    -14.41466234	     27.06998213	     -3.74465300	      7.16682538	      0.00000000	    -30.00000025	     -4.80266474	    -15.55599725	      0.00000000	     50.00000000	     35.00000000	      0.00000000	     35.22426419	      2.03392298	     -8.04271970	     -3.49136283	     -5.25488431	     22.33507920	     93.21572508	    119.74817918	     -6.22225466	    -10.14653390	     19.16326201	    106.69511806	    119.74817918
     10.16666670	     -8.91038008	      4.74615464	    -66.61899629	      3.75348593	      0.95206841	      9.69263336	    -16.13580094	     -1.51783559	    -10.27716525	     21.65647628	     -6.22378179	      8.66173278	      0.00000000	    -30.00000025	     -5.15460101	    -15.86784944	      0.00000000	     50.00000000	     35.00000000	      0.00000000	     35.60552432	      2.16529626	     -7.56635449	     -2.74145524	     -4.42092403	     21.76578413	     94.99041851	    119.74817918	     -7.45372553	    -11.45798994	     18.30001681	    107.80562078	    119.74817918
     10.18333330	     -8.88856745	      4.91935995	    -67.04961468	      3.74895715	      0.95103769	      9.69583304	    -18.11501387	     -0.71321726	     -6.20968136	     17.45142455	     -6.72860712	      9.25420222	      0.00000000	    -30.00000025	     -5.20110964	    -15.79211114	      0.00000000	     50.00000000	     35.00000000	      0.00000000	     35.80587754	      1.34637075	     -7.05561554	     -1.73213463	     -3.64220931	     21.15016089	     96.04343053	    119.74817918	     -8.32734176	    -12.50280839	     17.22821900	    108.58273511	    119.74817918
     10.20000000	     -8.27017031	      4.33783848	    -67.37973145	      3.74454571	      0.95152110	      9.70008199	    -21.58440061	     -0.02389464	     -0.68992198	     12.74219652	     -7.64662143	      6.60076674	      0.00000000	    -30.00000025	     -5.32839625	    -14.56096499	      2.13365335	     50.00000000	     32.82012096	      0.00000000	     34.99855284	      0.11817882	     -6.53576149	     -0.69746088	     -3.21141917	     20.96270978	     96.72860858	    119.74817918	     -8.50564307	    -13.83230540	     16.81192979	    108.71632172	    119.74817918
     10.21666670	     -6.63071422	      2.92531947	    -67.86667494	      3.74065904	      0.95276712	      9.70098677	    -25.42359113	     -0.53724233	      5.01530185	      9.86075499	     -6.39759375	      3.77788844	      0.00000000	    -30.00000025	     -4.54531270	     -7.90979565	      6.30001926	     50.00000000	     24.09870206	      0.00000000	     32.44499188	     -1.26246598	     -5.39252513	      0.87177177	     -3.21622412	     21.33860235	     96.36366047	    119.74817918	     -7.55006603	    -15.02149388	     17.16091232	    107.68810798	    119.74817918
